<?xml version="1.0" encoding="UTF-8" standalone="no"?>
<!-- Created with Inkscape (http://www.inkscape.org/) -->

<svg
   width="245.01497mm"
   height="133.42198mm"
   viewBox="0 0 245.01497 133.42198"
   version="1.1"
   id="svg1"
   inkscape:version="1.4.2 (f4327f4, 2025-05-13)"
   sodipodi:docname="logo.svg"
   xmlns:inkscape="http://www.inkscape.org/namespaces/inkscape"
   xmlns:sodipodi="http://sodipodi.sourceforge.net/DTD/sodipodi-0.dtd"
   xmlns="http://www.w3.org/2000/svg"
   xmlns:svg="http://www.w3.org/2000/svg">
  <sodipodi:namedview
     id="namedview1"
     pagecolor="#ffffff"
     bordercolor="#000000"
     borderopacity="0.25"
     inkscape:showpageshadow="2"
     inkscape:pageopacity="0.0"
     inkscape:pagecheckerboard="0"
     inkscape:deskcolor="#d1d1d1"
     inkscape:document-units="mm"
     inkscape:zoom="0.22048611"
     inkscape:cx="571.46457"
     inkscape:cy="-260.7874"
     inkscape:window-width="1366"
     inkscape:window-height="697"
     inkscape:window-x="-8"
     inkscape:window-y="245"
     inkscape:window-maximized="1"
     inkscape:current-layer="layer1" />
  <defs
     id="defs1">
    <filter
       inkscape:collect="always"
       style="color-interpolation-filters:sRGB"
       id="filter117"
       x="-0.014738241"
       y="-0.010119823"
       width="1.0294765"
       height="1.0202396">
      <feGaussianBlur
         inkscape:collect="always"
         stdDeviation="0.33330603"
         id="feGaussianBlur117" />
    </filter>
  </defs>
  <g
     inkscape:label="Camada 1"
     inkscape:groupmode="layer"
     id="layer1"
     transform="translate(39.687506,-104.775)">
    <g
       id="g758"
       transform="translate(-309.05765,61.22257)"
       inkscape:export-filename="logo.png"
       inkscape:export-xdpi="120"
       inkscape:export-ydpi="120">
      <g
         id="g752"
         style="filter:url(#filter117)">
        <path
           id="path748"
           style="fill:#00ffff;stroke-width:0.638699"
           d="m 372.65245,98.604859 c -0.6075,0 -1.09659,0.547947 -1.09658,1.228344 v 3.684537 c 0,0.0345 1.6e-4,0.0686 0.004,0.10232 -0.0472,0.36578 0.0897,0.76753 0.39946,1.06505 l 2.52129,2.42207 c -0.0259,0.10476 -0.0398,0.21495 -0.0398,0.32918 v 6.31641 c 0,0.4064 0.17444,0.76527 0.44442,0.98857 0.023,0.0256 0.0476,0.0512 0.0729,0.0754 l 2.80396,2.69389 -10e-4,5.2e-4 5.69681,5.51232 c 0.48895,0.47316 1.2224,0.5028 1.64486,0.0661 0.42249,-0.43658 0.36955,-1.16857 -0.11937,-1.64176 l -8.34936,-8.06204 v -4.21008 l 4.03913,3.90054 -0.012,1.35547 c -0.006,0.68039 0.48856,1.22835 1.09606,1.22835 0.6075,0 1.09657,-0.54796 1.09657,-1.22835 v -1.05265 c -0.0143,-0.62491 0.0465,-1.12197 -0.39118,-1.64538 l -8.71213,-8.37003 v -3.530537 c 0,-0.680397 -0.48907,-1.228344 -1.09657,-1.228344 z"
           sodipodi:nodetypes="ssscscsscccccsccccssssccsss" />
        <path
           id="path749"
           style="fill:#00ffff;fill-opacity:1;stroke-width:0.701428"
           d="m 391.97362,44.35244 c -0.04,0.0114 -0.1099,0.32274 -0.16181,0.72937 -0.0558,0.43717 -0.41916,2.54833 -0.80753,4.69185 l -0.70597,3.89726 -0.0577,18.28749 -0.0393,12.53518 c -0.0788,0.016 -0.15751,0.0327 -0.23598,0.0503 0.0792,-0.0145 0.15747,-0.0319 0.23598,-0.0493 l -0.0165,5.34005 c -2.50587,0.78104 -4.21245,3.10116 -4.21241,5.72593 5e-5,3.31208 2.68465,5.99665 5.99675,5.99671 3.3121,-6e-5 5.9972,-2.68463 5.99724,-5.99671 1.5e-4,-2.58908 -1.66131,-4.88623 -4.1203,-5.69655 -0.0554,-0.77222 -0.0875,-2.35702 -0.10554,-5.36844 0.0719,0.016 0.14345,0.0322 0.21605,0.0453 -0.0719,-0.0161 -0.14388,-0.0316 -0.21605,-0.0463 -0.0158,-2.63309 -0.0209,-6.35638 -0.0209,-11.5808 0,-14.32961 -0.0498,-17.97286 -0.26934,-19.62574 -0.33138,-2.49513 -1.37407,-8.83851 -1.4682,-8.93264 -0.002,-8.4e-4 -0.003,-0.003 -0.006,-0.003 h -5.1e-4 -5e-4 -4.9e-4 c -3.2e-4,5e-5 -6.9e-4,-9e-5 -8.6e-4,0 z m -5.74036,18.67382 -1.1416,1.74999 -1.14209,1.74949 -0.0881,9.318 -0.0866,9.20946 c -3.23916,2.52533 -5.13297,6.40313 -5.13297,10.51037 -8e-5,7.36044 5.96679,13.32729 13.32727,13.32721 7.36049,9e-5 13.32738,-5.96677 13.3273,-13.32721 9e-5,-4.25132 -2.02811,-8.24758 -5.45957,-10.75731 l 0.0647,-9.19253 0.0652,-9.28565 -1.11372,-1.54785 -1.11321,-1.54835 -0.0482,11.32438 -0.0363,8.95307 c -0.0128,-0.006 -0.0255,-0.0116 -0.0383,-0.0174 0.0184,0.009 0.0364,0.0173 0.0547,0.0259 l -0.01,2.37379 c -0.0137,-0.008 -0.0286,-0.0134 -0.0423,-0.0214 3.44922,2.0101 5.57098,5.70119 5.57207,9.69339 -2e-5,6.19814 -5.02464,11.22272 -11.22281,11.22275 -6.19819,-3e-5 -11.2228,-5.02461 -11.22282,-11.22275 0.001,-3.9922 2.12285,-7.6833 5.57208,-9.69339 -0.0133,0.008 -0.0277,0.013 -0.0409,0.0209 l 9.5e-4,-2.37878 h -9.5e-4 l 0.004,-8.9929 z"
           sodipodi:nodetypes="cccccccccsccccccsscsccccccccccccccccccccccccccccccccc" />
        <path
           id="path750"
           style="fill:#00ffff;fill-opacity:1;stroke-width:0.728059"
           d="m 385.67796,92.94969 c 5e-5,3.43782 -4e-5,-2.72442 0,0 z m -5.99603,-43.27794 c -2.0712,-9e-5 -3.75026,1.67897 -3.75017,3.75016 -5e-5,1.58928 1.00171,3.00599 2.50011,3.5357 v 3.91552 c 0,0.0709 0.004,0.14078 0.0134,0.20878 l -12.12019,11.64374 c -0.55931,0.53734 -0.62342,1.37182 -0.14366,1.8712 0.23988,0.2497 0.56947,0.3669 0.90847,0.3545 0.33902,-0.0124 0.68774,-0.15404 0.96739,-0.42271 l 12.40338,-11.91608 c 0.39593,-0.38041 0.54404,-0.91029 0.42633,-1.36426 0.0294,-0.11936 0.045,-0.24507 0.045,-0.37517 v -3.91552 c 1.4984,-0.52971 2.50016,-1.94642 2.50011,-3.5357 9e-5,-2.07119 -1.67897,-3.75025 -3.75016,-3.75016 z m 0,2.24999 c 0.82856,-9e-5 1.50026,0.67161 1.50017,1.50017 -2e-4,0.82836 -0.67182,1.49974 -1.50017,1.49965 -0.82836,1e-4 -1.49998,-0.67129 -1.50018,-1.49965 -9e-5,-0.82856 0.67162,-1.50027 1.50018,-1.50017 z m 0.96531,14.94793 c -0.33901,0.0124 -0.68772,0.15404 -0.96738,0.42271 l -8.07652,7.75923 c -0.0288,0.0277 -0.0565,0.0566 -0.0827,0.0858 -0.30777,0.25455 -0.50643,0.66379 -0.50643,1.12706 v 7.20007 c 0,0.13023 0.0155,0.25571 0.045,0.37517 l -2.87373,2.76107 c -0.35302,0.33916 -0.50907,0.79691 -0.45527,1.21388 -0.003,0.0385 -0.004,0.0774 -0.004,0.11679 v 4.20026 c 0,0.0668 0.004,0.13265 0.0119,0.19689 l -2.53317,2.43343 c -0.55931,0.53733 -0.62343,1.37181 -0.14366,1.87119 0.47976,0.49938 1.31654,0.46911 1.87585,-0.0682 l 12.40338,-11.91605 c 0.55932,-0.53733 0.62343,-1.37182 0.14366,-1.8712 -0.47976,-0.49937 -1.31655,-0.46909 -1.87586,0.0682 l -7.38197,7.09208 v -1.8309 l 9.93118,-9.54101 c 0.57504,-0.522748 0.4026,-1.204722 0.44646,-1.87585 v -1.19993 c -10e-6,-0.77559 -0.55755,-1.39993 -1.25007,-1.39992 -0.6925,-1e-5 -1.24953,0.62432 -1.24953,1.39992 v 1.19993 c -10e-6,0.11917 -4.59044,4.79143 -4.59044,4.79143 v -4.79867 l 7.89824,-7.58766 c 0.55931,-0.53734 0.6229,-1.37182 0.14314,-1.8712 -0.23988,-0.24969 -0.56895,-0.36689 -0.90796,-0.3545 z"
           sodipodi:nodetypes="sssccsccsscccsccsscccccscccsscccssccsccsccccssssccccsss" />
        <path
           id="path751"
           style="fill:#00ffff;fill-opacity:1;stroke-width:0.728059"
           d="m 398.07718,92.94969 c -5e-5,3.43782 4e-5,-2.72442 0,0 z m 5.99607,-43.27794 c 2.0712,-9e-5 3.75027,1.67897 3.75018,3.75016 5e-5,1.58928 -1.00172,3.00599 -2.50012,3.5357 v 3.91552 c 0,0.0709 -0.004,0.14078 -0.0134,0.20878 l 12.12025,11.64374 c 0.55932,0.53734 0.62343,1.37182 0.14366,1.8712 -0.23988,0.2497 -0.56947,0.3669 -0.90847,0.3545 -0.33902,-0.0124 -0.68774,-0.15404 -0.96739,-0.42271 L 403.29451,62.61256 c -0.39593,-0.38041 -0.54404,-0.91029 -0.42633,-1.36426 -0.0294,-0.11936 -0.045,-0.24507 -0.045,-0.37517 v -3.91552 c -1.49841,-0.52971 -2.50018,-1.94642 -2.50013,-3.5357 -8e-5,-2.07119 1.67898,-3.75025 3.75019,-3.75016 z m 0,2.24999 c -0.82857,-9e-5 -1.50028,0.67161 -1.50018,1.50017 1.9e-4,0.82836 0.67181,1.49974 1.50018,1.49965 0.82836,1e-4 1.49999,-0.67129 1.50018,-1.49965 9e-5,-0.82856 -0.67162,-1.50027 -1.50018,-1.50017 z m -0.96532,14.94793 c 0.33901,0.0124 0.68772,0.15404 0.96739,0.42271 l 8.07655,7.75923 c 0.0288,0.0277 0.0565,0.0566 0.0827,0.0858 0.30778,0.25455 0.50644,0.66379 0.50644,1.12706 v 7.20007 c 0,0.13023 -0.0155,0.25571 -0.045,0.37517 l 2.87375,2.76107 c 0.35302,0.33916 0.50907,0.79691 0.45527,1.21388 0.003,0.0385 0.004,0.0774 0.004,0.11679 v 4.20026 c 0,0.0668 -0.004,0.13265 -0.0119,0.19689 l 2.53318,2.43343 c 0.55931,0.53733 0.62343,1.37181 0.14366,1.87119 -0.47976,0.49938 -1.31655,0.46911 -1.87586,-0.0682 L 404.41466,84.64897 c -0.55932,-0.53733 -0.62343,-1.37182 -0.14366,-1.8712 0.47976,-0.49937 1.31656,-0.46909 1.87587,0.0682 l 7.38201,7.09208 v -1.8309 l -9.93123,-9.54101 c -0.57504,-0.522748 -0.4026,-1.204722 -0.44646,-1.87585 v -1.19993 c 1e-5,-0.77559 0.55755,-1.39993 1.25007,-1.39992 0.69251,-1e-5 1.24954,0.62432 1.24954,1.39992 v 1.19993 c 10e-6,0.11917 4.59046,4.79143 4.59046,4.79143 v -4.79867 l -7.89827,-7.58766 c -0.55932,-0.53734 -0.62291,-1.37182 -0.14315,-1.8712 0.23989,-0.24969 0.56896,-0.36689 0.90797,-0.3545 z"
           sodipodi:nodetypes="sssccsccsscccsccsscccccscccsscccssccsccsccccssssccccsss" />
        <path
           id="path752"
           style="fill:#00ffff;stroke-width:0.638699"
           d="m 411.2739,98.604859 c 0.6075,0 1.09659,0.547947 1.09658,1.228344 v 3.684537 c 0,0.0345 -1.6e-4,0.0686 -0.004,0.10232 0.0472,0.36578 -0.0897,0.76753 -0.39946,1.06505 l -2.52129,2.42207 c 0.0259,0.10476 0.0398,0.21495 0.0398,0.32918 v 6.31641 c 0,0.4064 -0.17444,0.76527 -0.44442,0.98857 -0.023,0.0256 -0.0476,0.0512 -0.0729,0.0754 l -2.80396,2.69389 0.001,5.2e-4 -5.69681,5.51232 c -0.48895,0.47316 -1.2224,0.5028 -1.64486,0.0661 -0.42249,-0.43658 -0.36955,-1.16857 0.11937,-1.64176 l 8.34936,-8.06204 v -4.21008 l -4.0337,3.90054 0.007,1.35547 c 0.004,0.68041 -0.48856,1.22835 -1.09606,1.22835 -0.6075,0 -1.09657,-0.54796 -1.09657,-1.22835 v -1.05265 c 0.0143,-0.62491 -0.0465,-1.12197 0.39118,-1.64538 l 8.71213,-8.37003 v -3.530537 c 0,-0.680397 0.48907,-1.228344 1.09657,-1.228344 z"
           sodipodi:nodetypes="ssscscsscccccsccccssssccsss" />
      </g>
      <g
         id="g757">
        <path
           id="path753"
           style="fill:#00ffff;stroke-width:0.638699"
           d="m 372.65245,98.604859 c -0.6075,0 -1.09659,0.547947 -1.09658,1.228344 v 3.684537 c 0,0.0345 1.6e-4,0.0686 0.004,0.10232 -0.0472,0.36578 0.0897,0.76753 0.39946,1.06505 l 2.52129,2.42207 c -0.0259,0.10476 -0.0398,0.21495 -0.0398,0.32918 v 6.31641 c 0,0.4064 0.17444,0.76527 0.44442,0.98857 0.023,0.0256 0.0476,0.0512 0.0729,0.0754 l 2.80396,2.69389 -10e-4,5.2e-4 5.69681,5.51232 c 0.48895,0.47316 1.2224,0.5028 1.64486,0.0661 0.42249,-0.43658 0.36955,-1.16857 -0.11937,-1.64176 l -8.34936,-8.06204 v -4.21008 l 4.03913,3.90054 -0.012,1.35547 c -0.006,0.68039 0.48856,1.22835 1.09606,1.22835 0.6075,0 1.09657,-0.54796 1.09657,-1.22835 v -1.05265 c -0.0143,-0.62491 0.0465,-1.12197 -0.39118,-1.64538 l -8.71213,-8.37003 v -3.530537 c 0,-0.680397 -0.48907,-1.228344 -1.09657,-1.228344 z"
           sodipodi:nodetypes="ssscscsscccccsccccssssccsss" />
        <path
           id="path754"
           style="fill:#00ffff;fill-opacity:1;stroke-width:0.701428"
           d="m 391.97362,44.35244 c -0.04,0.0114 -0.1099,0.32274 -0.16181,0.72937 -0.0558,0.43717 -0.41916,2.54833 -0.80753,4.69185 l -0.70597,3.89726 -0.0577,18.28749 -0.0393,12.53518 c -0.0788,0.016 -0.15751,0.0327 -0.23598,0.0503 0.0792,-0.0145 0.15747,-0.0319 0.23598,-0.0493 l -0.0165,5.34005 c -2.50587,0.78104 -4.21245,3.10116 -4.21241,5.72593 5e-5,3.31208 2.68465,5.99665 5.99675,5.99671 3.3121,-6e-5 5.9972,-2.68463 5.99724,-5.99671 1.5e-4,-2.58908 -1.66131,-4.88623 -4.1203,-5.69655 -0.0554,-0.77222 -0.0875,-2.35702 -0.10554,-5.36844 0.0719,0.016 0.14345,0.0322 0.21605,0.0453 -0.0719,-0.0161 -0.14388,-0.0316 -0.21605,-0.0463 -0.0158,-2.63309 -0.0209,-6.35638 -0.0209,-11.5808 0,-14.32961 -0.0498,-17.97286 -0.26934,-19.62574 -0.33138,-2.49513 -1.37407,-8.83851 -1.4682,-8.93264 -0.002,-8.4e-4 -0.003,-0.003 -0.006,-0.003 h -5.1e-4 -5e-4 -4.9e-4 c -3.2e-4,5e-5 -6.9e-4,-9e-5 -8.6e-4,0 z m -5.74036,18.67382 -1.1416,1.74999 -1.14209,1.74949 -0.0881,9.318 -0.0866,9.20946 c -3.23916,2.52533 -5.13297,6.40313 -5.13297,10.51037 -8e-5,7.36044 5.96679,13.32729 13.32727,13.32721 7.36049,9e-5 13.32738,-5.96677 13.3273,-13.32721 9e-5,-4.25132 -2.02811,-8.24758 -5.45957,-10.75731 l 0.0647,-9.19253 0.0652,-9.28565 -1.11372,-1.54785 -1.11321,-1.54835 -0.0482,11.32438 -0.0363,8.95307 c -0.0128,-0.006 -0.0255,-0.0116 -0.0383,-0.0174 0.0184,0.009 0.0364,0.0173 0.0547,0.0259 l -0.01,2.37379 c -0.0137,-0.008 -0.0286,-0.0134 -0.0423,-0.0214 3.44922,2.0101 5.57098,5.70119 5.57207,9.69339 -2e-5,6.19814 -5.02464,11.22272 -11.22281,11.22275 -6.19819,-3e-5 -11.2228,-5.02461 -11.22282,-11.22275 0.001,-3.9922 2.12285,-7.6833 5.57208,-9.69339 -0.0133,0.008 -0.0277,0.013 -0.0409,0.0209 l 9.5e-4,-2.37878 h -9.5e-4 l 0.004,-8.9929 z"
           sodipodi:nodetypes="cccccccccsccccccsscsccccccccccccccccccccccccccccccccc" />
        <path
           id="path755"
           style="fill:#00ffff;fill-opacity:1;stroke-width:0.728059"
           d="m 385.67796,92.94969 c 5e-5,3.43782 -4e-5,-2.72442 0,0 z m -5.99603,-43.27794 c -2.0712,-9e-5 -3.75026,1.67897 -3.75017,3.75016 -5e-5,1.58928 1.00171,3.00599 2.50011,3.5357 v 3.91552 c 0,0.0709 0.004,0.14078 0.0134,0.20878 l -12.12019,11.64374 c -0.55931,0.53734 -0.62342,1.37182 -0.14366,1.8712 0.23988,0.2497 0.56947,0.3669 0.90847,0.3545 0.33902,-0.0124 0.68774,-0.15404 0.96739,-0.42271 l 12.40338,-11.91608 c 0.39593,-0.38041 0.54404,-0.91029 0.42633,-1.36426 0.0294,-0.11936 0.045,-0.24507 0.045,-0.37517 v -3.91552 c 1.4984,-0.52971 2.50016,-1.94642 2.50011,-3.5357 9e-5,-2.07119 -1.67897,-3.75025 -3.75016,-3.75016 z m 0,2.24999 c 0.82856,-9e-5 1.50026,0.67161 1.50017,1.50017 -2e-4,0.82836 -0.67182,1.49974 -1.50017,1.49965 -0.82836,1e-4 -1.49998,-0.67129 -1.50018,-1.49965 -9e-5,-0.82856 0.67162,-1.50027 1.50018,-1.50017 z m 0.96531,14.94793 c -0.33901,0.0124 -0.68772,0.15404 -0.96738,0.42271 l -8.07652,7.75923 c -0.0288,0.0277 -0.0565,0.0566 -0.0827,0.0858 -0.30777,0.25455 -0.50643,0.66379 -0.50643,1.12706 v 7.20007 c 0,0.13023 0.0155,0.25571 0.045,0.37517 l -2.87373,2.76107 c -0.35302,0.33916 -0.50907,0.79691 -0.45527,1.21388 -0.003,0.0385 -0.004,0.0774 -0.004,0.11679 v 4.20026 c 0,0.0668 0.004,0.13265 0.0119,0.19689 l -2.53317,2.43343 c -0.55931,0.53733 -0.62343,1.37181 -0.14366,1.87119 0.47976,0.49938 1.31654,0.46911 1.87585,-0.0682 l 12.40338,-11.91605 c 0.55932,-0.53733 0.62343,-1.37182 0.14366,-1.8712 -0.47976,-0.49937 -1.31655,-0.46909 -1.87586,0.0682 l -7.38197,7.09208 v -1.8309 l 9.93118,-9.54101 c 0.57504,-0.522748 0.4026,-1.204722 0.44646,-1.87585 v -1.19993 c -10e-6,-0.77559 -0.55755,-1.39993 -1.25007,-1.39992 -0.6925,-1e-5 -1.24953,0.62432 -1.24953,1.39992 v 1.19993 c -10e-6,0.11917 -4.59044,4.79143 -4.59044,4.79143 v -4.79867 l 7.89824,-7.58766 c 0.55931,-0.53734 0.6229,-1.37182 0.14314,-1.8712 -0.23988,-0.24969 -0.56895,-0.36689 -0.90796,-0.3545 z"
           sodipodi:nodetypes="sssccsccsscccsccsscccccscccsscccssccsccsccccssssccccsss" />
        <path
           id="path756"
           style="fill:#00ffff;fill-opacity:1;stroke-width:0.728059"
           d="m 398.07718,92.94969 c -5e-5,3.43782 4e-5,-2.72442 0,0 z m 5.99607,-43.27794 c 2.0712,-9e-5 3.75027,1.67897 3.75018,3.75016 5e-5,1.58928 -1.00172,3.00599 -2.50012,3.5357 v 3.91552 c 0,0.0709 -0.004,0.14078 -0.0134,0.20878 l 12.12025,11.64374 c 0.55932,0.53734 0.62343,1.37182 0.14366,1.8712 -0.23988,0.2497 -0.56947,0.3669 -0.90847,0.3545 -0.33902,-0.0124 -0.68774,-0.15404 -0.96739,-0.42271 L 403.29451,62.61256 c -0.39593,-0.38041 -0.54404,-0.91029 -0.42633,-1.36426 -0.0294,-0.11936 -0.045,-0.24507 -0.045,-0.37517 v -3.91552 c -1.49841,-0.52971 -2.50018,-1.94642 -2.50013,-3.5357 -8e-5,-2.07119 1.67898,-3.75025 3.75019,-3.75016 z m 0,2.24999 c -0.82857,-9e-5 -1.50028,0.67161 -1.50018,1.50017 1.9e-4,0.82836 0.67181,1.49974 1.50018,1.49965 0.82836,1e-4 1.49999,-0.67129 1.50018,-1.49965 9e-5,-0.82856 -0.67162,-1.50027 -1.50018,-1.50017 z m -0.96532,14.94793 c 0.33901,0.0124 0.68772,0.15404 0.96739,0.42271 l 8.07655,7.75923 c 0.0288,0.0277 0.0565,0.0566 0.0827,0.0858 0.30778,0.25455 0.50644,0.66379 0.50644,1.12706 v 7.20007 c 0,0.13023 -0.0155,0.25571 -0.045,0.37517 l 2.87375,2.76107 c 0.35302,0.33916 0.50907,0.79691 0.45527,1.21388 0.003,0.0385 0.004,0.0774 0.004,0.11679 v 4.20026 c 0,0.0668 -0.004,0.13265 -0.0119,0.19689 l 2.53318,2.43343 c 0.55931,0.53733 0.62343,1.37181 0.14366,1.87119 -0.47976,0.49938 -1.31655,0.46911 -1.87586,-0.0682 L 404.41466,84.64897 c -0.55932,-0.53733 -0.62343,-1.37182 -0.14366,-1.8712 0.47976,-0.49937 1.31656,-0.46909 1.87587,0.0682 l 7.38201,7.09208 v -1.8309 l -9.93123,-9.54101 c -0.57504,-0.522748 -0.4026,-1.204722 -0.44646,-1.87585 v -1.19993 c 1e-5,-0.77559 0.55755,-1.39993 1.25007,-1.39992 0.69251,-1e-5 1.24954,0.62432 1.24954,1.39992 v 1.19993 c 10e-6,0.11917 4.59046,4.79143 4.59046,4.79143 v -4.79867 l -7.89827,-7.58766 c -0.55932,-0.53734 -0.62291,-1.37182 -0.14315,-1.8712 0.23989,-0.24969 0.56896,-0.36689 0.90797,-0.3545 z"
           sodipodi:nodetypes="sssccsccsscccsccsscccccscccsscccssccsccsccccssssccccsss" />
        <path
           id="path757"
           style="fill:#00ffff;stroke-width:0.638699"
           d="m 411.2739,98.604859 c 0.6075,0 1.09659,0.547947 1.09658,1.228344 v 3.684537 c 0,0.0345 -1.6e-4,0.0686 -0.004,0.10232 0.0472,0.36578 -0.0897,0.76753 -0.39946,1.06505 l -2.52129,2.42207 c 0.0259,0.10476 0.0398,0.21495 0.0398,0.32918 v 6.31641 c 0,0.4064 -0.17444,0.76527 -0.44442,0.98857 -0.023,0.0256 -0.0476,0.0512 -0.0729,0.0754 l -2.80396,2.69389 0.001,5.2e-4 -5.69681,5.51232 c -0.48895,0.47316 -1.2224,0.5028 -1.64486,0.0661 -0.42249,-0.43658 -0.36955,-1.16857 0.11937,-1.64176 l 8.34936,-8.06204 v -4.21008 l -4.0337,3.90054 0.007,1.35547 c 0.004,0.68041 -0.48856,1.22835 -1.09606,1.22835 -0.6075,0 -1.09657,-0.54796 -1.09657,-1.22835 v -1.05265 c 0.0143,-0.62491 -0.0465,-1.12197 0.39118,-1.64538 l 8.71213,-8.37003 v -3.530537 c 0,-0.680397 0.48907,-1.228344 1.09657,-1.228344 z"
           sodipodi:nodetypes="ssscscsscccccsccccssssccsss" />
      </g>
    </g>
    <g
       id="g2"
       transform="translate(-217.74337,149.67161)"
       inkscape:export-filename="logo.png"
       inkscape:export-xdpi="120"
       inkscape:export-ydpi="120">
      <g
         id="g3"
         transform="translate(-22.841518,6.7645092)">
        <text
           xml:space="preserve"
           style="font-style:normal;font-variant:normal;font-weight:bold;font-stretch:normal;font-size:23.3535px;font-family:Lilex;-inkscape-font-specification:'Lilex, Bold';font-variant-ligatures:normal;font-variant-caps:normal;font-variant-numeric:normal;font-variant-east-asian:normal;text-align:start;writing-mode:lr-tb;direction:ltr;text-anchor:start;fill:#00ffff;fill-opacity:1;stroke-width:0.794389;stroke-linecap:round;stroke-linejoin:round"
           x="239.33221"
           y="58.191902"
           id="text1"><tspan
             sodipodi:role="line"
             id="tspan1"
             style="font-style:normal;font-variant:normal;font-weight:bold;font-stretch:normal;font-size:23.3535px;font-family:Lilex;-inkscape-font-specification:'Lilex, Bold';font-variant-ligatures:normal;font-variant-caps:normal;font-variant-numeric:normal;font-variant-east-asian:normal;fill:#00ffff;fill-opacity:1;stroke-width:0.794389"
             x="239.33221"
             y="58.191902">{Core Works}</tspan></text>
        <text
           xml:space="preserve"
           style="font-style:normal;font-variant:normal;font-weight:bold;font-stretch:normal;font-size:17.1591px;font-family:Lilex;-inkscape-font-specification:'Lilex, Bold';font-variant-ligatures:normal;font-variant-caps:normal;font-variant-numeric:normal;font-variant-east-asian:normal;text-align:start;writing-mode:lr-tb;direction:ltr;text-anchor:start;fill:#00ffff;fill-opacity:1;stroke-width:0.583682;stroke-linecap:round;stroke-linejoin:round"
           x="199.95366"
           y="81.554977"
           id="text2"><tspan
             sodipodi:role="line"
             id="tspan2"
             style="font-style:normal;font-variant:normal;font-weight:bold;font-stretch:normal;font-size:17.1591px;font-family:Lilex;-inkscape-font-specification:'Lilex, Bold';font-variant-ligatures:normal;font-variant-caps:normal;font-variant-numeric:normal;font-variant-east-asian:normal;fill:#00ffff;fill-opacity:1;stroke-width:0.583682"
             x="199.95366"
             y="81.554977">Unlimited Software Works</tspan></text>
      </g>
    </g>
  </g>
</svg>
